<svg width="123" height="79" viewBox="0 0 123 79" fill="none" xmlns="http://www.w3.org/2000/svg">
<path d="M61.0148 24.5386C54.8138 20.4117 54.6494 9.85271 64.7857 8.35779C74.2621 6.96077 75.7979 17.1052 72.3077 22.8053" stroke="black" stroke-width="8" stroke-miterlimit="10" stroke-linecap="round" stroke-linejoin="round"/>
<path d="M101.629 36.8545C109.94 36.8883 117.585 28.1922 110.037 21.1112C102.982 14.4921 94.2384 22.2638 93.0349 29.122" stroke="black" stroke-width="8" stroke-miterlimit="10" stroke-linecap="round" stroke-linejoin="round"/>
<path d="M73.2482 23.0943C80.5344 21.5252 87.2335 23.3752 92.5755 27.9073" stroke="black" stroke-width="8" stroke-miterlimit="10" stroke-linecap="round" stroke-linejoin="round"/>
<path d="M101.498 37.2961C107.114 53.219 94.1813 62.1534 88.2603 63.7104C83.9533 64.8428 65.9674 67.3026 61.8085 54.9279" stroke="black" stroke-width="8" stroke-miterlimit="10" stroke-linecap="round" stroke-linejoin="round"/>
<path d="M37.7168 51.6282C34.8056 51.9773 33.3554 52.1981 30.4666 52.7376C27.5038 49.8699 25.9367 48.481 22.6408 45.818C22.4927 45.7025 22.3493 45.5094 22.2093 45.2393C22.0707 44.9699 21.9287 44.6012 21.7894 44.136C21.72 44.1529 21.6867 44.163 21.6174 44.1799C22.613 48.1549 23.1091 50.142 24.1053 54.1163C21.069 54.8679 19.5584 55.2966 16.5649 56.2635C13.6156 47.2467 12.143 42.7383 9.19579 33.7215C12.6153 32.6182 14.3394 32.1233 17.8071 31.2509C21.4462 33.8039 23.1852 35.1422 26.4973 37.9207C26.6468 38.0422 26.7882 38.24 26.9166 38.5149C27.0471 38.791 27.166 39.1637 27.2836 39.635C27.3549 39.6209 27.3916 39.6155 27.4637 39.6013C26.6856 35.579 26.2975 33.5676 25.5201 29.5453C29.24 28.8357 31.1109 28.5453 34.862 28.0963C36.0023 37.5095 36.5738 42.215 37.7168 51.6282Z" fill="black"/>
<path d="M39.9329 41.8606C39.6182 38.4838 40.2801 35.8782 42.0266 34.0976C43.7737 32.3178 46.8317 31.3009 51.0946 31.3009C55.3568 31.3009 58.4128 32.3185 60.1592 34.0983C61.905 35.8795 62.5683 38.4838 62.2543 41.8606C61.939 45.2393 60.8503 47.6634 59.091 49.1981C57.3309 50.7315 54.7003 51.3986 51.0939 51.3986C47.5731 51.3986 44.9664 50.7417 43.1655 49.2413C41.3661 47.7397 40.2523 45.3021 39.9329 41.8606ZM48.9336 38.4615C48.9859 41.4318 49.0131 42.9159 49.0648 45.8869C49.5656 45.8774 49.8157 45.8747 50.3165 45.8727C51.3087 45.8659 52.0256 45.7761 52.4687 45.5918C52.9111 45.4081 53.138 44.9693 53.1503 44.2745C53.2026 41.3049 53.2277 39.8194 53.2801 36.8491C52.7398 36.8397 52.4707 36.8363 51.9305 36.8336C50.8602 36.8262 50.0902 36.9295 49.62 37.1239C49.149 37.3184 48.9214 37.7661 48.9336 38.4615Z" fill="black"/>
<path d="M85.6223 56.2635C82.8042 55.3533 81.3818 54.9462 78.5236 54.2264C77.0395 50.3844 76.2043 48.4709 74.3471 44.6789C74.2621 44.5121 74.2118 44.2765 74.1989 43.9746C74.1853 43.6735 74.2132 43.2792 74.2845 42.7998C74.2145 42.7856 74.1792 42.7802 74.1085 42.766C73.3311 46.7876 72.9438 48.799 72.1664 52.8213C69.1009 52.2365 67.5603 51.9975 64.4697 51.6275C65.6127 42.215 66.1828 37.5095 67.3252 28.0963C70.8562 28.5197 72.6189 28.7884 76.1227 29.4434C78.3361 33.2772 79.3506 35.2178 81.1875 39.1239C81.2731 39.2974 81.3132 39.5358 81.3139 39.8376C81.3152 40.1421 81.2677 40.5331 81.1746 41.0091C81.2453 41.026 81.2806 41.0354 81.3519 41.053C82.3482 37.078 82.8463 35.0909 83.8412 31.1165C87.5284 32.0288 89.3612 32.5493 92.9928 33.7215C90.0421 42.7383 88.5682 47.2467 85.6223 56.2635Z" fill="black"/>
</svg>
